<svg xmlns="http://www.w3.org/2000/svg" xmlns:xlink="http://www.w3.org/1999/xlink" viewBox="0 0 1080 787.31"><defs><style>.cls-1,.cls-4{fill:none;}.cls-2{clip-path:url(#clip-path);}.cls-3{opacity:0.2;}.cls-4{stroke:#282834;stroke-miterlimit:10;}.cls-5{fill:#2ea07b;}.cls-6{fill:#4ecca2;}.cls-7{fill:#282834;}</style><clipPath id="clip-path"><rect class="cls-1" x="-523.04" y="480.24" width="404.63" height="223.24"/></clipPath></defs><title>logo-ver</title><g id="Layer_3" data-name="Layer 3"><g class="cls-2"><g class="cls-3"><rect class="cls-4" x="-550.94" y="75.61" width="697.64" height="697.64"/><line class="cls-4" x1="-550.94" y1="759.3" x2="146.69" y2="759.3"/><line class="cls-4" x1="-550.94" y1="745.34" x2="146.69" y2="745.34"/><line class="cls-4" x1="-550.94" y1="731.39" x2="146.69" y2="731.39"/><line class="cls-4" x1="-550.94" y1="717.44" x2="146.69" y2="717.44"/><line class="cls-4" x1="-550.94" y1="703.49" x2="146.69" y2="703.49"/><line class="cls-4" x1="-550.94" y1="689.53" x2="146.69" y2="689.53"/><line class="cls-4" x1="-550.94" y1="675.58" x2="146.69" y2="675.58"/><line class="cls-4" x1="-550.94" y1="661.63" x2="146.69" y2="661.63"/><line class="cls-4" x1="-550.94" y1="647.67" x2="146.69" y2="647.67"/><line class="cls-4" x1="-550.94" y1="633.72" x2="146.69" y2="633.72"/><line class="cls-4" x1="-550.94" y1="619.77" x2="146.69" y2="619.77"/><line class="cls-4" x1="-550.94" y1="605.82" x2="146.69" y2="605.82"/><line class="cls-4" x1="-550.94" y1="591.86" x2="146.69" y2="591.86"/><line class="cls-4" x1="-550.94" y1="577.91" x2="146.69" y2="577.91"/><line class="cls-4" x1="-550.94" y1="563.96" x2="146.69" y2="563.96"/><line class="cls-4" x1="-550.94" y1="550.01" x2="146.69" y2="550.01"/><line class="cls-4" x1="-550.94" y1="536.05" x2="146.69" y2="536.05"/><line class="cls-4" x1="-550.94" y1="522.1" x2="146.69" y2="522.1"/><line class="cls-4" x1="-550.94" y1="508.15" x2="146.69" y2="508.15"/><line class="cls-4" x1="-550.94" y1="494.19" x2="146.69" y2="494.19"/><line class="cls-4" x1="-550.94" y1="480.24" x2="146.69" y2="480.24"/><line class="cls-4" x1="-550.94" y1="466.29" x2="146.69" y2="466.29"/><line class="cls-4" x1="-550.94" y1="452.34" x2="146.69" y2="452.34"/><line class="cls-4" x1="-550.94" y1="438.38" x2="146.69" y2="438.38"/><line class="cls-4" x1="-550.94" y1="424.43" x2="146.69" y2="424.43"/><line class="cls-4" x1="-550.94" y1="410.48" x2="146.69" y2="410.48"/><line class="cls-4" x1="-550.94" y1="396.53" x2="146.69" y2="396.53"/><line class="cls-4" x1="-550.94" y1="382.57" x2="146.69" y2="382.57"/><line class="cls-4" x1="-550.94" y1="368.62" x2="146.69" y2="368.62"/><line class="cls-4" x1="-550.94" y1="354.67" x2="146.69" y2="354.67"/><line class="cls-4" x1="-550.94" y1="340.71" x2="146.69" y2="340.71"/><line class="cls-4" x1="-550.94" y1="326.76" x2="146.69" y2="326.76"/><line class="cls-4" x1="-550.94" y1="312.81" x2="146.69" y2="312.81"/><line class="cls-4" x1="-550.94" y1="298.86" x2="146.69" y2="298.86"/><line class="cls-4" x1="-550.94" y1="284.9" x2="146.69" y2="284.9"/><line class="cls-4" x1="-550.94" y1="270.95" x2="146.69" y2="270.95"/><line class="cls-4" x1="-550.94" y1="257" x2="146.69" y2="257"/><line class="cls-4" x1="-550.94" y1="243.05" x2="146.69" y2="243.05"/><line class="cls-4" x1="-550.94" y1="229.09" x2="146.69" y2="229.09"/><line class="cls-4" x1="-550.94" y1="215.14" x2="146.69" y2="215.14"/><line class="cls-4" x1="-550.94" y1="201.19" x2="146.69" y2="201.19"/><line class="cls-4" x1="-550.94" y1="187.23" x2="146.69" y2="187.23"/><line class="cls-4" x1="-550.94" y1="173.28" x2="146.69" y2="173.28"/><line class="cls-4" x1="-550.94" y1="159.33" x2="146.69" y2="159.33"/><line class="cls-4" x1="-550.94" y1="145.38" x2="146.69" y2="145.38"/><line class="cls-4" x1="-550.94" y1="131.42" x2="146.69" y2="131.42"/><line class="cls-4" x1="-550.94" y1="117.47" x2="146.69" y2="117.47"/><line class="cls-4" x1="-550.94" y1="103.52" x2="146.69" y2="103.52"/><line class="cls-4" x1="-550.94" y1="89.57" x2="146.69" y2="89.57"/><line class="cls-4" x1="132.74" y1="75.61" x2="132.74" y2="773.25"/><line class="cls-4" x1="118.79" y1="75.61" x2="118.79" y2="773.25"/><line class="cls-4" x1="104.83" y1="75.61" x2="104.83" y2="773.25"/><line class="cls-4" x1="90.88" y1="75.61" x2="90.88" y2="773.25"/><line class="cls-4" x1="76.93" y1="75.61" x2="76.93" y2="773.25"/><line class="cls-4" x1="62.98" y1="75.61" x2="62.98" y2="773.25"/><line class="cls-4" x1="49.02" y1="75.61" x2="49.02" y2="773.25"/><line class="cls-4" x1="35.07" y1="75.61" x2="35.07" y2="773.25"/><line class="cls-4" x1="21.12" y1="75.61" x2="21.12" y2="773.25"/><line class="cls-4" x1="7.16" y1="75.61" x2="7.16" y2="773.25"/></g></g><path class="cls-5" d="M715.69,32.46c-333.63,0-452.75,389.23-556.05,389.23,185.37,0,237.85-247.18,419.12-247.18L626,72.46Z"/><path class="cls-6" d="M910.31,227.08c0,107.48-87.14,194.61-194.62,194.61S521.07,334.56,521.07,227.08,608.2,32.46,715.69,32.46a197,197,0,0,1,22.12,1.24A152.93,152.93,0,1,0,909.07,205,197,197,0,0,1,910.31,227.08Z"/><path class="cls-7" d="M144.33,728.1v23.58H33.87V547.17H59.19V728.1Z"/><path class="cls-7" d="M276.81,751.68H253.23v-23q-3.75,8.93-14.24,17.55t-29.77,8.63q-23,0-35.53-16.25t-12.51-42.14v-80h23.87v74.21q0,17.84,7.92,29.48t23.73,11.65q17.53,0,27-12.51t9.5-33.51V616.5h23.58Z"/><path class="cls-7" d="M308.39,616.5h23.88v23q3.74-9.21,14.24-17.84T376.28,613q23,0,35.52,16.26t12.51,42.14v80.24H400.44V677.19q0-17.84-7.91-29.49T368.8,636.05q-17.55,0-27,12.51t-9.49,33.52v69.6H308.39Z"/><path class="cls-7" d="M557.69,751.68v-23a46.83,46.83,0,0,1-43.15,26.18,60.17,60.17,0,0,1-33.8-9.93A69.89,69.89,0,0,1,457,718.61a73.73,73.73,0,0,1-8.63-34.81A74.63,74.63,0,0,1,457,648.28a66.33,66.33,0,0,1,23.88-25.74,62.39,62.39,0,0,1,33.65-9.5,46.83,46.83,0,0,1,43.15,26.18V616.5h23.58V751.68Zm-11.08-32.93q11.07-13.08,11.08-34.37,0-21.58-11.08-35t-31.49-13.38q-19.86,0-31.5,13.38T472,683.51q0,20.72,11.5,34.52t31.65,13.81Q535.54,731.84,546.61,718.75Z"/><path class="cls-7" d="M645.94,719q12.51,12.23,33.22,12.22,17.83,0,29.05-9.35T719.43,697q0-11.21-5.47-18.12a33,33,0,0,0-12.8-10.07q-7.33-3.15-20.28-7.19-22.14-6.9-35.66-13.51a56.35,56.35,0,0,1-21.86-18.56Q615,617.66,615,598.37a49.81,49.81,0,0,1,8.06-28,53.36,53.36,0,0,1,22.29-19q14.24-6.76,32.07-6.76,18.12,0,32.36,7.76a56.6,56.6,0,0,1,22.3,21.72q8,13.95,8,32.07H714.83q-.29-17.25-10.07-27.62T678,568.17q-16.68,0-27.18,8.2t-10.5,22q0,15,10.35,23.3t27.62,13.24a359.55,359.55,0,0,1,35,12.94,61.37,61.37,0,0,1,22.14,17q9.35,11.22,9.35,29.34,0,19.27-8.77,32.93a55.43,55.43,0,0,1-24.16,20.71q-15.39,7.05-34.66,7.05-19.57,0-35.24-8.34a61.7,61.7,0,0,1-24.74-23.88q-9.06-15.52-9.06-36.53h25.31Q633.42,706.82,645.94,719Z"/><path class="cls-7" d="M765.59,684.38a81.64,81.64,0,0,1,7.91-36,62.79,62.79,0,0,1,22.44-25.89q14.52-9.49,33.8-9.5,19,0,33.65,9.21a62.07,62.07,0,0,1,22.73,25.17,77.83,77.83,0,0,1,8,35.52,63.31,63.31,0,0,1-.86,10.35H789.18q2.3,17,12.8,28.48t29.77,11.5q29.63,0,36.82-26.46h23.3A53.18,53.18,0,0,1,873,741.33q-16,13.53-41.28,13.52-19.56,0-34.23-9.35a64.49,64.49,0,0,1-22.86-25,80.79,80.79,0,0,1-9.07-34.09ZM870.3,671.72q-2.59-17-12.95-26.9t-27.61-9.91q-17,0-27.18,10.06t-12.8,26.75Z"/><path class="cls-7" d="M1022.54,751.68v-23a46.8,46.8,0,0,1-43.14,26.18,60.15,60.15,0,0,1-33.8-9.93,69.72,69.72,0,0,1-23.73-26.31,73.61,73.61,0,0,1-8.63-34.81,74.51,74.51,0,0,1,8.63-35.52,66.24,66.24,0,0,1,23.87-25.74A62.4,62.4,0,0,1,979.4,613a46.8,46.8,0,0,1,43.14,26.18V616.5h23.59V751.68Zm-11.07-32.93q11.07-13.08,11.07-34.37,0-21.58-11.07-35T980,636.05q-19.85,0-31.5,13.38t-11.65,34.08q0,20.72,11.51,34.52T980,731.84Q1000.39,731.84,1011.47,718.75Z"/></g></svg>