<svg xmlns="http://www.w3.org/2000/svg" viewBox="0 0 1080 206.92"><defs><style>.cls-1{fill:#2ea07b;}.cls-2{fill:#4ecca2;}.cls-3{fill:#282834;}</style></defs><title>logo</title><g id="Layer_3" data-name="Layer 3"><path class="cls-1" d="M249.74,24c-136.18,0-184.8,158.87-227,158.87C98.44,182.89,119.86,82,193.85,82l19.28-41.65Z"/><path class="cls-2" d="M329.17,103.46A79.44,79.44,0,1,1,249.74,24a81.38,81.38,0,0,1,9,.51,62.42,62.42,0,1,0,69.91,69.9A81.57,81.57,0,0,1,329.17,103.46Z"/><path class="cls-3" d="M445.37,163.07v16.11H369.93V39.51h17.29V163.07Z"/><path class="cls-3" d="M535.14,179.18H519V163.46q-2.56,6.09-9.73,12T489,181.34q-15.72,0-24.26-11.1t-8.54-28.78V86.85h16.3v50.68q0,12.18,5.4,20.14t16.21,8q12,0,18.46-8.54T519,134.19V86.85h16.11Z"/><path class="cls-3" d="M556.1,86.85h16.3v15.72q2.55-6.28,9.72-12.18t20.33-5.9q15.72,0,24.26,11.1t8.55,28.78v54.81H619V128.3q0-12.18-5.4-20.13t-16.2-8q-12,0-18.47,8.54t-6.48,22.89v47.54H556.1Z"/><path class="cls-3" d="M725.7,179.18V163.46a32,32,0,0,1-29.47,17.88,41.09,41.09,0,0,1-23.08-6.78,47.71,47.71,0,0,1-16.21-18,50.32,50.32,0,0,1-5.89-23.77,50.92,50.92,0,0,1,5.89-24.26A45.3,45.3,0,0,1,673.25,91a42.55,42.55,0,0,1,23-6.49,32,32,0,0,1,29.47,17.88V86.85h16.1v92.33Zm-7.57-22.49q7.56-8.94,7.57-23.48,0-14.73-7.57-23.87t-21.51-9.13q-13.54,0-21.51,9.13t-8,23.28q0,14.15,7.85,23.58t21.61,9.42Q710.57,165.62,718.13,156.69Z"/><path class="cls-3" d="M785.27,156.88q8.55,8.35,22.69,8.35,12.18,0,19.84-6.38t7.66-17q0-7.65-3.73-12.37A22.49,22.49,0,0,0,823,122.6q-5-2.16-13.85-4.91a176.18,176.18,0,0,1-24.36-9.23,38.53,38.53,0,0,1-14.93-12.67q-5.7-8.15-5.69-21.31a34,34,0,0,1,5.5-19.16,36.52,36.52,0,0,1,15.22-13,50.39,50.39,0,0,1,21.9-4.62,45.35,45.35,0,0,1,22.1,5.31,38.59,38.59,0,0,1,15.23,14.83,43.07,43.07,0,0,1,5.5,21.9H832.32q-.2-11.79-6.88-18.86t-18.26-7.07q-11.4,0-18.57,5.6a18.08,18.08,0,0,0-7.17,15q0,10.22,7.07,15.91t18.86,9a250,250,0,0,1,23.87,8.84,42,42,0,0,1,15.13,11.59q6.38,7.66,6.38,20,0,13.17-6,22.49a38,38,0,0,1-16.5,14.15,56.37,56.37,0,0,1-23.67,4.81,50.41,50.41,0,0,1-24.07-5.7,42.1,42.1,0,0,1-16.89-16.3q-6.2-10.62-6.19-25h17.29Q776.73,148.54,785.27,156.88Z"/><path class="cls-3" d="M866.28,133.21a55.63,55.63,0,0,1,5.41-24.55A42.79,42.79,0,0,1,887,91a41.15,41.15,0,0,1,23.08-6.49A41.83,41.83,0,0,1,948.59,108a53,53,0,0,1,5.5,24.26,42.16,42.16,0,0,1-.59,7.07H882.39a35.08,35.08,0,0,0,8.74,19.45q7.17,7.86,20.33,7.85,20.24,0,25.15-18.07h15.91a36.3,36.3,0,0,1-12.87,23.57q-10.89,9.24-28.19,9.24-13.35,0-23.37-6.39a44.11,44.11,0,0,1-15.62-17.08,55.35,55.35,0,0,1-6.19-23.28Zm71.51-8.64Q936,113,929,106.2t-18.86-6.78q-11.6,0-18.56,6.88t-8.75,18.27Z"/><path class="cls-3" d="M1041.11,179.18V163.46a32,32,0,0,1-29.47,17.88,41.11,41.11,0,0,1-23.08-6.78,47.77,47.77,0,0,1-16.2-18,50.33,50.33,0,0,1-5.9-23.77,50.93,50.93,0,0,1,5.9-24.26A45.34,45.34,0,0,1,988.66,91a42.55,42.55,0,0,1,23-6.49,32,32,0,0,1,29.47,17.88V86.85h16.11v92.33Zm-7.56-22.49q7.56-8.94,7.56-23.48,0-14.73-7.56-23.87T1012,100.21q-13.56,0-21.51,9.13t-8,23.28q0,14.15,7.86,23.58t21.61,9.42Q1026,165.62,1033.55,156.69Z"/></g></svg>